<svg xmlns="http://www.w3.org/2000/svg" version="1.1" xmlns:xlink="http://www.w3.org/1999/xlink" width="1000" height="1000"><style>
    #light-icon {
      display: inline;
    }
    #dark-icon {
      display: none;
    }

    @media (prefers-color-scheme: dark) {
      #light-icon {
        display: none;
      }
      #dark-icon {
        display: inline;
      }
    }
  </style><g id="light-icon"><svg xmlns="http://www.w3.org/2000/svg" version="1.1" xmlns:xlink="http://www.w3.org/1999/xlink" width="1000" height="1000"><g><g transform="matrix(4.9504950495049505,0,0,4.9504950495049505,22.277227722772295,0)"><svg xmlns="http://www.w3.org/2000/svg" version="1.1" xmlns:xlink="http://www.w3.org/1999/xlink" width="193" height="202"><svg width="193" height="202" viewBox="0 0 193 202" fill="none" xmlns="http://www.w3.org/2000/svg">
<g clip-path="url(#clip0_2002_22)">
<path fill-rule="evenodd" clip-rule="evenodd" d="M19.4292 26.3577L96.044 0.597901C96.1848 0.545772 96.3355 0.517174 96.4902 0.516229C96.6527 0.514737 96.8107 0.543739 96.9581 0.598503L173.571 26.3577C174.139 26.5485 174.507 27.0973 174.469 27.695L169.578 104.196C169.555 104.55 169.676 104.898 169.913 105.162L192.219 130.064C192.665 130.562 192.669 131.314 192.229 131.817L161.207 167.254C160.822 167.693 160.195 167.829 159.665 167.587L142.353 159.713C142.182 159.635 141.995 159.594 141.806 159.594H139.587C139.001 159.594 138.485 159.98 138.32 160.542L129.321 191.018C129.194 191.449 128.855 191.787 128.422 191.913L96.9085 201.089C96.7823 201.13 96.6481 201.153 96.5106 201.154C96.3646 201.155 96.2231 201.132 96.0896 201.088L64.5774 191.913C64.1451 191.787 63.8067 191.449 63.6792 191.018L54.6808 160.542C54.5149 159.98 53.9989 159.594 53.413 159.594H51.1939C51.0051 159.594 50.8185 159.635 50.6466 159.713L33.3356 167.587C32.8046 167.829 32.1779 167.693 31.7936 167.254L0.77113 131.817C0.330975 131.314 0.335261 130.562 0.781117 130.064L23.0874 105.162C23.3241 104.898 23.4446 104.55 23.422 104.196L18.5312 27.695C18.493 27.0973 18.8615 26.5485 19.4292 26.3577ZM53.5441 138.406C64.9976 138.406 74.2826 129.121 74.2826 117.668C74.2826 106.214 64.9976 96.9296 53.5441 96.9296C42.0907 96.9296 32.8059 106.214 32.8059 117.668C32.8059 129.121 42.0907 138.406 53.5441 138.406ZM160.198 117.668C160.198 129.121 150.914 138.406 139.46 138.406C128.007 138.406 118.722 129.121 118.722 117.668C118.722 106.214 128.007 96.9296 139.46 96.9296C150.914 96.9296 160.198 106.214 160.198 117.668ZM94.6309 140.004L84.2644 156.23C83.9174 156.772 84.0126 157.486 84.4891 157.92L88.1277 161.227C88.6637 161.715 89.4926 161.68 89.9857 161.148L95.122 155.617C95.3725 155.347 95.7234 155.194 96.0909 155.194H96.8471C97.2529 155.194 97.6363 155.38 97.8868 155.699L102.081 161.037C102.541 161.623 103.394 161.713 103.966 161.236L107.969 157.9C108.473 157.48 108.593 156.755 108.251 156.195L98.3699 140.026C98.13 139.634 97.7023 139.394 97.2417 139.394H95.7446C95.2938 139.394 94.8741 139.624 94.6309 140.004Z" fill="black"></path>
</g>
<defs>
<clipPath id="clip0_2002_22">
<rect width="193" height="201.592" fill="white"></rect>
</clipPath>
</defs>
</svg></svg></g></g></svg></g><g id="dark-icon"><svg xmlns="http://www.w3.org/2000/svg" version="1.1" xmlns:xlink="http://www.w3.org/1999/xlink" width="1000" height="1000"><g><g transform="matrix(4.9504950495049505,0,0,4.9504950495049505,22.277227722772295,0)"><svg xmlns="http://www.w3.org/2000/svg" version="1.1" xmlns:xlink="http://www.w3.org/1999/xlink" width="193" height="202"><svg width="193" height="202" viewBox="0 0 193 202" fill="none" xmlns="http://www.w3.org/2000/svg">
<g clip-path="url(#clip0_2002_22)">
<path fill-rule="evenodd" clip-rule="evenodd" d="M19.4292 26.3577L96.044 0.597901C96.1848 0.545772 96.3355 0.517174 96.4902 0.516229C96.6527 0.514737 96.8107 0.543739 96.9581 0.598503L173.571 26.3577C174.139 26.5485 174.507 27.0973 174.469 27.695L169.578 104.196C169.555 104.55 169.676 104.898 169.913 105.162L192.219 130.064C192.665 130.562 192.669 131.314 192.229 131.817L161.207 167.254C160.822 167.693 160.195 167.829 159.665 167.587L142.353 159.713C142.182 159.635 141.995 159.594 141.806 159.594H139.587C139.001 159.594 138.485 159.98 138.32 160.542L129.321 191.018C129.194 191.449 128.855 191.787 128.422 191.913L96.9085 201.089C96.7823 201.13 96.6481 201.153 96.5106 201.154C96.3646 201.155 96.2231 201.132 96.0896 201.088L64.5774 191.913C64.1451 191.787 63.8067 191.449 63.6792 191.018L54.6808 160.542C54.5149 159.98 53.9989 159.594 53.413 159.594H51.1939C51.0051 159.594 50.8185 159.635 50.6466 159.713L33.3356 167.587C32.8046 167.829 32.1779 167.693 31.7936 167.254L0.77113 131.817C0.330975 131.314 0.335261 130.562 0.781117 130.064L23.0874 105.162C23.3241 104.898 23.4446 104.55 23.422 104.196L18.5312 27.695C18.493 27.0973 18.8615 26.5485 19.4292 26.3577ZM53.5441 138.406C64.9976 138.406 74.2826 129.121 74.2826 117.668C74.2826 106.214 64.9976 96.9296 53.5441 96.9296C42.0907 96.9296 32.8059 106.214 32.8059 117.668C32.8059 129.121 42.0907 138.406 53.5441 138.406ZM160.198 117.668C160.198 129.121 150.914 138.406 139.46 138.406C128.007 138.406 118.722 129.121 118.722 117.668C118.722 106.214 128.007 96.9296 139.46 96.9296C150.914 96.9296 160.198 106.214 160.198 117.668ZM94.6309 140.004L84.2644 156.23C83.9174 156.772 84.0126 157.486 84.4891 157.92L88.1277 161.227C88.6637 161.715 89.4926 161.68 89.9857 161.148L95.122 155.617C95.3725 155.347 95.7234 155.194 96.0909 155.194H96.8471C97.2529 155.194 97.6363 155.38 97.8868 155.699L102.081 161.037C102.541 161.623 103.394 161.713 103.966 161.236L107.969 157.9C108.473 157.48 108.593 156.755 108.251 156.195L98.3699 140.026C98.13 139.634 97.7023 139.394 97.2417 139.394H95.7446C95.2938 139.394 94.8741 139.624 94.6309 140.004Z" fill="#FFE80A"></path>
</g>
<defs>
<clipPath id="clip0_2002_22">
<rect width="193" height="201.592" fill="white"></rect>
</clipPath>
</defs>
</svg></svg></g></g></svg></g></svg>